<?xml version="1.0" encoding="UTF-8" standalone="no"?>
<!DOCTYPE svg PUBLIC "-//W3C//DTD SVG 1.1//EN" "http://www.w3.org/Graphics/SVG/1.1/DTD/svg11.dtd">
<svg width="100%" height="100%" viewBox="0 0 330 330" version="1.1" xmlns="http://www.w3.org/2000/svg" xmlns:xlink="http://www.w3.org/1999/xlink" xml:space="preserve" xmlns:serif="http://www.serif.com/" style="fill-rule:evenodd;clip-rule:evenodd;stroke-linecap:round;stroke-linejoin:round;stroke-miterlimit:1.5;">
    <g transform="matrix(1,0,0,1,-1783.5,-212.02)">
        <g transform="matrix(1,0,0,1,-1330,174)">
            <g>
                <g transform="matrix(1.09392,0,0,1.09392,2136.04,-416.55)">
                    <path d="M944,416C944,416 937.456,416 929.103,416C919.793,416 910.865,419.698 904.281,426.281C897.698,432.865 894,441.793 894,451.103C894,459.456 894,466 894,466L944,466L944,416Z" style="fill:rgb(13,71,161);stroke:rgb(13,71,161);stroke-width:0.91px;"/>
                </g>
                <g transform="matrix(1.09392,0,0,1.09392,2136.04,-361.854)">
                    <rect x="894" y="416" width="50" height="50" style="fill:rgb(21,101,192);stroke:rgb(21,101,192);stroke-width:0.91px;"/>
                </g>
                <g transform="matrix(1.09392,0,0,1.09392,2136.04,-307.158)">
                    <rect x="894" y="416" width="50" height="50" style="fill:rgb(25,118,210);stroke:rgb(25,118,210);stroke-width:0.91px;"/>
                </g>
                <g transform="matrix(1.09392,0,0,1.09392,2136.04,-252.462)">
                    <rect x="894" y="416" width="50" height="50" style="fill:rgb(30,136,229);stroke:rgb(30,136,229);stroke-width:0.91px;"/>
                </g>
                <g transform="matrix(1.09392,0,0,1.09392,2136.04,-197.766)">
                    <rect x="894" y="416" width="50" height="50" style="fill:rgb(33,150,243);stroke:rgb(33,150,243);stroke-width:0.91px;"/>
                </g>
                <g transform="matrix(1.09392,0,0,1.09392,2136.04,-143.07)">
                    <path d="M944,416L894,416C894,416 894,422.544 894,430.897C894,440.207 897.698,449.135 904.281,455.719C910.865,462.302 919.793,466 929.103,466C937.456,466 944,466 944,466L944,416Z" style="fill:rgb(66,165,245);stroke:rgb(66,165,245);stroke-width:0.91px;"/>
                </g>
                <g transform="matrix(1.09392,0,0,1.09392,2190.73,-416.55)">
                    <rect x="894" y="416" width="50" height="50" style="fill:rgb(21,101,192);stroke:rgb(21,101,192);stroke-width:0.91px;"/>
                </g>
                <g transform="matrix(1.09392,0,0,1.09392,2190.73,-361.854)">
                    <rect x="894" y="416" width="50" height="50" style="fill:rgb(25,118,210);stroke:rgb(25,118,210);stroke-width:0.91px;"/>
                </g>
                <g transform="matrix(1.09392,0,0,1.09392,2190.73,-307.158)">
                    <rect x="894" y="416" width="50" height="50" style="fill:rgb(30,136,229);stroke:rgb(30,136,229);stroke-width:0.91px;"/>
                </g>
                <g transform="matrix(1.09392,0,0,1.09392,2190.73,-252.462)">
                    <rect x="894" y="416" width="50" height="50" style="fill:rgb(33,150,243);stroke:rgb(33,150,243);stroke-width:0.91px;"/>
                </g>
                <g transform="matrix(1.09392,0,0,1.09392,2190.73,-197.766)">
                    <rect x="894" y="416" width="50" height="50" style="fill:rgb(66,165,245);stroke:rgb(66,165,245);stroke-width:0.91px;"/>
                </g>
                <g transform="matrix(1.09392,0,0,1.09392,2190.73,-143.07)">
                    <rect x="894" y="416" width="50" height="50" style="fill:rgb(33,150,243);stroke:rgb(33,150,243);stroke-width:0.91px;"/>
                </g>
                <g transform="matrix(1.09392,0,0,1.09392,2245.43,-416.55)">
                    <rect x="894" y="416" width="50" height="50" style="fill:rgb(25,118,210);stroke:rgb(25,118,210);stroke-width:0.91px;"/>
                </g>
                <g transform="matrix(1.09392,0,0,1.09392,2245.43,-361.854)">
                    <rect x="894" y="416" width="50" height="50" style="fill:rgb(30,136,229);stroke:rgb(30,136,229);stroke-width:0.91px;"/>
                </g>
                <g transform="matrix(1.09392,0,0,1.09392,2245.43,-307.158)">
                    <rect x="894" y="416" width="50" height="50" style="fill:rgb(33,150,243);stroke:rgb(33,150,243);stroke-width:0.91px;"/>
                </g>
                <g transform="matrix(1.09392,0,0,1.09392,2245.43,-252.462)">
                    <rect x="894" y="416" width="50" height="50" style="fill:rgb(66,165,245);stroke:rgb(66,165,245);stroke-width:0.91px;"/>
                </g>
                <g transform="matrix(1.09392,0,0,1.09392,2245.43,-197.766)">
                    <rect x="894" y="416" width="50" height="50" style="fill:rgb(33,150,243);stroke:rgb(33,150,243);stroke-width:0.91px;"/>
                </g>
                <g transform="matrix(1.09392,0,0,1.09392,2245.43,-143.07)">
                    <rect x="894" y="416" width="50" height="50" style="fill:rgb(30,136,229);stroke:rgb(30,136,229);stroke-width:0.91px;"/>
                </g>
                <g transform="matrix(1.09392,0,0,1.09392,2300.12,-416.55)">
                    <rect x="894" y="416" width="50" height="50" style="fill:rgb(30,136,229);stroke:rgb(30,136,229);stroke-width:0.91px;"/>
                </g>
                <g transform="matrix(1.09392,0,0,1.09392,2300.12,-361.854)">
                    <rect x="894" y="416" width="50" height="50" style="fill:rgb(33,150,243);stroke:rgb(33,150,243);stroke-width:0.91px;"/>
                </g>
                <g transform="matrix(1.09392,0,0,1.09392,2300.12,-307.158)">
                    <rect x="894" y="416" width="50" height="50" style="fill:rgb(66,165,245);stroke:rgb(66,165,245);stroke-width:0.91px;"/>
                </g>
                <g transform="matrix(1.09392,0,0,1.09392,2300.12,-252.462)">
                    <rect x="894" y="416" width="50" height="50" style="fill:rgb(33,150,243);stroke:rgb(33,150,243);stroke-width:0.91px;"/>
                </g>
                <g transform="matrix(1.09392,0,0,1.09392,2300.12,-197.766)">
                    <rect x="894" y="416" width="50" height="50" style="fill:rgb(30,136,229);stroke:rgb(30,136,229);stroke-width:0.91px;"/>
                </g>
                <g transform="matrix(1.09392,0,0,1.09392,2300.12,-143.07)">
                    <rect x="894" y="416" width="50" height="50" style="fill:rgb(25,118,210);stroke:rgb(25,118,210);stroke-width:0.91px;"/>
                </g>
                <g transform="matrix(1.09392,0,0,1.09392,2354.82,-416.55)">
                    <rect x="894" y="416" width="50" height="50" style="fill:rgb(33,150,243);stroke:rgb(33,150,243);stroke-width:0.91px;"/>
                </g>
                <g transform="matrix(1.09392,0,0,1.09392,2354.82,-361.854)">
                    <rect x="894" y="416" width="50" height="50" style="fill:rgb(66,165,245);stroke:rgb(66,165,245);stroke-width:0.91px;"/>
                </g>
                <g transform="matrix(1.09392,0,0,1.09392,2354.82,-307.158)">
                    <rect x="894" y="416" width="50" height="50" style="fill:rgb(33,150,243);stroke:rgb(33,150,243);stroke-width:0.91px;"/>
                </g>
                <g transform="matrix(1.09392,0,0,1.09392,2354.82,-252.462)">
                    <rect x="894" y="416" width="50" height="50" style="fill:rgb(30,136,229);stroke:rgb(30,136,229);stroke-width:0.91px;"/>
                </g>
                <g transform="matrix(1.09392,0,0,1.09392,2354.82,-197.766)">
                    <rect x="894" y="416" width="50" height="50" style="fill:rgb(25,118,210);stroke:rgb(25,118,210);stroke-width:0.91px;"/>
                </g>
                <g transform="matrix(1.09392,0,0,1.09392,2354.82,-143.07)">
                    <rect x="894" y="416" width="50" height="50" style="fill:rgb(21,101,192);stroke:rgb(21,101,192);stroke-width:0.91px;"/>
                </g>
                <g transform="matrix(1.09392,0,0,1.09392,2409.52,-416.55)">
                    <path d="M944,451.103C944,441.793 940.302,432.865 933.719,426.281C927.135,419.698 918.207,416 908.897,416C900.544,416 894,416 894,416L894,466L944,466C944,466 944,459.456 944,451.103Z" style="fill:rgb(66,165,245);stroke:rgb(66,165,245);stroke-width:0.91px;"/>
                </g>
                <g transform="matrix(1.09392,0,0,1.09392,2409.52,-361.854)">
                    <rect x="894" y="416" width="50" height="50" style="fill:rgb(33,150,243);stroke:rgb(33,150,243);stroke-width:0.91px;"/>
                </g>
                <g transform="matrix(1.09392,0,0,1.09392,2409.52,-307.158)">
                    <rect x="894" y="416" width="50" height="50" style="fill:rgb(30,136,229);stroke:rgb(30,136,229);stroke-width:0.91px;"/>
                </g>
                <g transform="matrix(1.09392,0,0,1.09392,2409.52,-252.462)">
                    <rect x="894" y="416" width="50" height="50" style="fill:rgb(25,118,210);stroke:rgb(25,118,210);stroke-width:0.91px;"/>
                </g>
                <g transform="matrix(1.09392,0,0,1.09392,2409.52,-197.766)">
                    <rect x="894" y="416" width="50" height="50" style="fill:rgb(21,101,192);stroke:rgb(21,101,192);stroke-width:0.91px;"/>
                </g>
                <g transform="matrix(1.09205,0,0,1.09392,2411.19,-143.07)">
                    <path d="M944,416L894,416L894,466C894,466 900.513,466 908.837,466C918.163,466 927.107,462.302 933.701,455.719C940.295,449.135 944,440.207 944,430.897C944,422.544 944,416 944,416Z" style="fill:rgb(13,71,161);stroke:rgb(13,71,161);stroke-width:0.91px;"/>
                </g>
                <g transform="matrix(1,0,0,1,-336.649,-387.565)">
                    <g transform="matrix(1.18587,0,0,0.978953,704.39,415.824)">
                        <path d="M2423,126.48C2423,121.8 2419.86,118 2416,118L2402,118C2398.14,118 2395,121.8 2395,126.48L2395,300.52C2395,305.2 2398.14,309 2402,309L2416,309C2419.86,309 2423,305.2 2423,300.52L2423,126.48Z" style="fill:white;stroke:white;stroke-width:0.92px;"/>
                    </g>
                    <g transform="matrix(7.26133e-17,-1.18587,0.695377,4.25795e-17,3470.78,3489.15)">
                        <path d="M2423,129.938C2423,123.349 2419.86,118 2416,118L2402,118C2398.14,118 2395,123.349 2395,129.938L2395,297.063C2395,303.651 2398.14,309 2402,309L2416,309C2419.86,309 2423,303.651 2423,297.063L2423,129.938Z" style="fill:white;stroke:white;stroke-width:1.03px;"/>
                    </g>
                    <g transform="matrix(-1.18587,-1.45227e-16,1.09458e-16,-0.893795,6525.8,738.209)">
                        <path d="M2423,127.287C2423,122.162 2419.86,118 2416,118L2402,118C2398.14,118 2395,122.162 2395,127.287L2395,299.713C2395,304.838 2398.14,309 2402,309L2416,309C2419.86,309 2423,304.838 2423,299.713L2423,127.287Z" style="fill:white;stroke:white;stroke-width:0.95px;"/>
                    </g>
                    <g transform="matrix(-2.1784e-16,1.18587,-0.575005,-1.05627e-16,3742.01,-2308.81)">
                        <path d="M2423,132.436C2423,124.469 2419.86,118 2416,118L2402,118C2398.14,118 2395,124.469 2395,132.436L2395,294.564C2395,302.531 2398.14,309 2402,309L2416,309C2419.86,309 2423,302.531 2423,294.564L2423,132.436Z" style="fill:white;stroke:white;stroke-width:1.07px;"/>
                    </g>
                    <g transform="matrix(-2.1784e-16,1.18587,-0.661906,-1.2159e-16,3749.07,-2378.12)">
                        <path d="M2423,130.541C2423,123.619 2419.86,118 2416,118L2402,118C2398.14,118 2395,123.619 2395,130.541L2395,296.459C2395,303.381 2398.14,309 2402,309L2416,309C2419.86,309 2423,303.381 2423,296.459L2423,130.541Z" style="fill:white;stroke:white;stroke-width:1.04px;"/>
                    </g>
                </g>
            </g>
        </g>
    </g>
</svg>
